<?xml version="1.0" encoding="UTF-8" standalone="no"?>
<!DOCTYPE svg PUBLIC "-//W3C//DTD SVG 1.1//EN" "http://www.w3.org/Graphics/SVG/1.1/DTD/svg11.dtd">
<!-- Created with Vectornator (http://vectornator.io/) -->
<svg height="100%" stroke-miterlimit="10" style="fill-rule:nonzero;clip-rule:evenodd;stroke-linecap:round;stroke-linejoin:round;" version="1.1" viewBox="0 0 268 320.699" width="100%" xml:space="preserve" xmlns="http://www.w3.org/2000/svg" xmlns:vectornator="http://vectornator.io" xmlns:xlink="http://www.w3.org/1999/xlink">
<defs/>
<g id="Layer">
<path d="M174.704 0.016C169.214 -0.1 163.494 0.415 157.614 1.485C137.744 7.273 131.184 12.573 123.424 21.297C79.534 70.679 108.514 103.961 134.204 151.797C145.564 172.947 155.314 196.819 157.954 221.078L51.364 289.516C40.164 282.076 30.614 272.224 24.424 260.672C12.717 238.816 13.744 216.845 18.814 200.208C20.184 195.71 28.534 197.926 33.424 196.797C61.994 190.205 38.384 150.072 14.524 185.078C7.93 194.743 4.672 202.893 1.925 214.797C-1.016 227.545 -0.712 242.845 3.706 255.297C21.594 305.719 84.994 337.734 134.204 311.078C166.784 293.435 176.124 261.819 173.704 228.766L200.484 211.635C202.684 210.226 202.154 206.869 199.624 206.211L187.654 203.102C186.844 202.892 185.984 203.03 185.284 203.483L171.644 212.266C167.224 188.06 157.524 164.175 146.804 145.485C132.374 120.349 111.464 97.768 114.424 67.172C118.064 29.607 153.864 3.192 189.984 14.782C196.044 16.726 204.584 25.241 208.264 29.057C214.694 35.731 221.614 49.181 226.704 44.36C231.184 40.122 224.844 28.542 217.024 19.485C205.654 6.32 191.174 0.363 174.704 0.016ZM227.524 50.422C226.204 50.266 226.174 50.331 225.394 50.516C224.494 50.728 223.524 51.185 222.424 51.891C213.754 57.463 201.834 105.132 209.804 113.985C222.504 128.097 249.024 101.037 251.204 107.672C257.644 127.22 242.384 200.042 242.984 222.203C243.134 227.524 245.384 229.134 247.674 228.235C250.414 227.158 251.394 223.287 252.984 215.828C254.634 208.119 256.214 198.482 256.744 195.693C259.214 182.506 260.664 169.522 262.924 156.297C264.564 146.72 266.544 137.161 267.424 127.485C268.444 116.299 270.044 93.377 253.024 91.485C242.094 90.271 224.784 105.809 223.304 100.485C221.984 95.781 224.014 90.43 225.144 85.679C227.014 77.821 230.674 70.584 232.304 62.672C233.054 59.028 232.894 51.062 227.524 50.422ZM158.834 238.297C158.874 253.94 156.374 268.159 145.924 281.391C125.954 306.691 93.754 309.006 66.484 297.61L158.834 238.297Z" fill="#ffffff" fill-rule="nonzero" opacity="1" stroke="none"/>
</g>
</svg>
