<?xml version="1.0" encoding="UTF-8" standalone="no"?>
<!DOCTYPE svg PUBLIC "-//W3C//DTD SVG 1.1//EN" "http://www.w3.org/Graphics/SVG/1.1/DTD/svg11.dtd">
<svg width="100%" height="100%" viewBox="0 0 1793 655" version="1.1" xmlns="http://www.w3.org/2000/svg" xmlns:xlink="http://www.w3.org/1999/xlink" xml:space="preserve" xmlns:serif="http://www.serif.com/" style="fill-rule:evenodd;clip-rule:evenodd;stroke-linejoin:round;stroke-miterlimit:2;">
    <g id="Layer-1" serif:id="Layer 1" transform="matrix(23.622047,0,0,23.622047,-1222.114448,-2384.758547)">
        <g id="g40">
            <path id="path40" d="M94.784,117.962C94.507,117.855 94.17,117.53 94.109,117.311C94.036,117.048 94.198,116.784 94.393,116.846C94.434,116.859 94.536,116.988 94.621,117.134C94.857,117.542 95.107,117.779 95.37,117.842C95.49,117.871 95.655,117.887 95.736,117.877C95.97,117.85 95.906,117.904 95.611,117.982C95.261,118.076 95.068,118.071 94.784,117.962Z" style="fill-rule:nonzero;"/>
            <path id="path38" d="M102.325,128.595C101.909,128.341 102.024,127.574 102.592,126.807C102.838,126.475 103.315,126.183 103.609,126.183C103.675,126.183 103.811,126.04 104.108,125.657C104.333,125.367 105.075,124.448 105.758,123.614C107.067,122.015 107.948,120.914 107.948,120.877C107.948,120.864 107.735,121.003 107.475,121.185C107.214,121.367 106.795,121.641 106.543,121.793C106.144,122.033 106.047,122.116 105.8,122.422C105.152,123.229 104.321,123.938 103.655,124.253C103.156,124.489 102.542,124.588 102.228,124.484C101.971,124.398 101.598,123.964 101.598,123.75C101.598,123.656 101.579,123.665 101.321,123.874C100.238,124.757 99.166,125.136 98.318,124.937C97.781,124.81 97.548,124.613 97.334,124.104C97.235,123.867 97.221,123.777 97.222,123.384L97.223,122.934L96.839,123.266C96.208,123.81 95.278,124.3 94.457,124.519C94.14,124.604 93.935,124.632 93.597,124.634C93.183,124.637 93.133,124.628 92.877,124.506C92.565,124.357 92.323,124.139 92.199,123.895C91.966,123.44 91.997,122.35 92.267,121.473C92.28,121.432 91.913,121.776 91.451,122.237C90.257,123.43 89.249,124.236 88.201,124.837C87.189,125.417 86.448,125.491 85.946,125.061C85.561,124.732 85.44,124.22 85.511,123.225C85.595,122.039 85.824,121.012 86.469,118.928C86.62,118.443 86.734,118.036 86.723,118.025C86.686,117.988 85.709,118.397 85.215,118.657C84.314,119.13 82.994,119.978 83.041,120.054C83.052,120.072 83.142,120.087 83.242,120.087C83.341,120.087 83.436,120.1 83.452,120.116C83.481,120.145 83.149,120.31 82.505,120.584C82.307,120.669 82.103,120.765 82.051,120.798C81.999,120.831 81.781,121.108 81.568,121.414C81,122.226 80.415,122.999 79.911,123.6C79.245,124.395 77.691,126.109 77.561,126.193C77.388,126.304 77.195,126.288 77.039,126.148C76.93,126.051 76.906,125.997 76.906,125.853C76.906,125.699 76.978,125.567 77.509,124.756C78.613,123.069 79.096,122.443 80.024,121.494C80.372,121.139 80.643,120.849 80.627,120.849C80.611,120.849 79.565,120.745 78.302,120.617C77.04,120.49 75.474,120.338 74.822,120.279C74.17,120.22 73.567,120.162 73.483,120.151L73.329,120.13L73.023,121.071C72.783,121.809 72.646,122.15 72.39,122.648C71.77,123.852 71.484,124.277 70.875,124.9C70.439,125.344 70.12,125.57 69.534,125.846C69.018,126.088 68.645,126.207 68.136,126.289C67.284,126.428 66.546,126.343 65.487,125.986C64.11,125.522 62.823,124.656 61.362,123.211C61.014,122.866 60.715,122.584 60.698,122.584C60.682,122.584 60.357,122.67 59.977,122.775C57.843,123.366 54.028,124.037 53.188,123.97C52.859,123.944 52.65,123.841 52.668,123.714C52.681,123.628 52.716,123.618 53.189,123.573C54.501,123.448 57.885,122.701 59.887,122.093L60.235,121.987L59.821,121.469C59.594,121.184 59.164,120.623 58.866,120.222C58.568,119.822 58.312,119.494 58.297,119.493C57.907,119.484 56.654,119.392 56.259,119.343C55.215,119.213 54.395,118.99 53.735,118.656C53.212,118.391 52.521,117.751 52.215,117.248C51.621,116.272 51.576,115.244 52.101,114.695C52.502,114.276 53.068,114.18 53.764,114.413C55.054,114.845 56.892,116.211 58.179,117.694C58.462,118.019 58.731,118.325 58.778,118.374C58.861,118.46 58.927,118.464 60.683,118.515C63.227,118.588 66.374,118.683 67.332,118.717L68.139,118.744L68.75,118.414C70.167,117.648 72.062,116.444 73.219,115.573C73.841,115.106 73.863,115.084 73.97,114.827C74.03,114.681 74.31,114 74.591,113.313C75.764,110.45 76.427,109.001 77.349,107.286C78.388,105.352 79.917,103.075 80.939,101.94C81.73,101.06 82.528,100.734 82.972,101.107C83.197,101.297 83.281,101.517 83.301,101.968C83.322,102.468 83.244,102.796 82.863,103.815C82.4,105.053 81.82,106.315 81.204,107.427C79.497,110.508 77.729,112.761 75.457,114.753L74.695,115.42L74.449,116.113C74.096,117.108 73.566,119.036 73.629,119.099C73.657,119.126 73.679,119.129 76.409,119.389C77.515,119.494 79.154,119.654 80.05,119.743C80.946,119.833 81.693,119.899 81.71,119.89C81.761,119.86 84.984,115.011 85.814,113.715C86.504,112.638 88.421,109.604 88.782,109.016C88.854,108.9 88.951,108.762 88.997,108.71C89.109,108.583 89.267,108.585 89.326,108.714C89.364,108.797 89.343,108.869 89.192,109.169C88.643,110.264 86.31,114.123 84.319,117.229C83.257,118.888 83.352,118.726 83.481,118.643C83.827,118.418 84.793,117.881 85.192,117.692C86.626,117.014 87.362,116.91 87.629,117.348C87.785,117.603 87.775,117.654 87.229,119.406C86.892,120.486 86.598,121.618 86.48,122.288C86.371,122.908 86.325,123.987 86.398,124.207C86.558,124.693 87.14,124.55 88.366,123.724C89.34,123.068 90.312,122.227 91.225,121.251C91.673,120.771 93.002,119.2 93.3,118.796C93.513,118.508 93.617,118.436 93.821,118.436C93.945,118.436 94.014,118.465 94.108,118.559C94.29,118.741 94.274,118.904 94.023,119.403C93.557,120.332 93.123,121.522 92.985,122.248C92.908,122.654 92.903,123.222 92.975,123.427C93.182,124.02 94.296,123.825 96.031,122.894C96.403,122.694 96.871,122.425 97.071,122.297L97.433,122.064L97.549,121.683C97.706,121.169 97.904,120.763 98.264,120.222C98.614,119.694 99.277,119.005 99.566,118.868C99.858,118.729 100.321,118.662 100.537,118.726C100.806,118.807 100.953,119.105 100.834,119.327C100.776,119.435 100.741,119.431 100.583,119.298C100.467,119.2 100.424,119.189 100.244,119.211C99.831,119.26 99.418,119.578 98.939,120.218C98.439,120.883 98.175,121.458 97.933,122.401C97.74,123.154 97.732,123.63 97.905,123.981C98.08,124.333 98.197,124.384 98.825,124.381C99.274,124.379 99.366,124.366 99.624,124.265C99.993,124.12 100.466,123.834 100.899,123.493C101.41,123.092 101.62,122.855 101.679,122.611C101.706,122.497 101.773,122.316 101.827,122.209C101.881,122.101 101.94,121.946 101.957,121.865C102.002,121.648 102.131,121.459 102.273,121.4C102.375,121.358 102.447,121.36 102.658,121.414C102.971,121.493 103.037,121.542 103.037,121.694C103.037,121.87 102.904,121.965 102.699,121.938C102.541,121.917 102.527,121.923 102.504,122.027C102.378,122.596 102.252,122.946 102.117,123.101C102.077,123.146 102.054,123.266 102.052,123.429C102.05,123.654 102.066,123.706 102.177,123.844C102.297,123.993 102.322,124.003 102.568,124.015C103.026,124.037 103.539,123.832 104.138,123.387C104.45,123.155 105.22,122.386 105.09,122.436C104.936,122.495 104.333,122.51 104.144,122.459C103.9,122.393 103.621,122.13 103.502,121.854C103.369,121.544 103.342,121.034 103.438,120.641C103.54,120.227 103.949,119.421 104.278,118.986C104.649,118.497 105.205,117.971 105.508,117.823C105.851,117.655 106.285,117.627 106.574,117.755C106.837,117.871 106.918,117.946 107.037,118.182C107.33,118.765 107.292,119.53 106.92,120.49C106.839,120.699 106.779,120.877 106.787,120.886C106.831,120.935 107.756,120.241 108.498,119.603C109.447,118.787 109.686,118.508 110.388,117.397C111.171,116.158 112.096,114.667 112.096,114.645C112.096,114.636 111.863,114.781 111.578,114.968C110.652,115.574 109.986,115.874 109.383,115.957C109.133,115.991 108.978,115.888 109.021,115.715C109.043,115.627 109.154,115.55 109.588,115.32C111.073,114.533 112.022,113.847 112.99,112.862L113.523,112.318L114.628,110.472C115.236,109.456 115.854,108.37 116.003,108.057C116.335,107.359 116.68,106.812 116.841,106.729C117.01,106.641 117.23,106.652 117.36,106.754C117.49,106.856 117.564,107.088 117.518,107.25C117.47,107.417 117.213,107.917 116.839,108.572C116.659,108.886 116.392,109.372 116.245,109.651C115.902,110.302 115.564,110.865 115.098,111.562C114.894,111.867 114.313,112.801 113.807,113.636C112.766,115.355 111.974,116.642 111.389,117.561C111.169,117.906 110.995,118.195 111.003,118.202C111.011,118.209 111.386,118.04 111.837,117.828L112.658,117.441L113.098,116.924C114.222,115.602 115.636,114.349 116.102,114.262C116.449,114.197 116.726,114.361 116.944,114.76C117.096,115.039 117.107,115.327 116.976,115.579C116.74,116.034 115.809,116.659 113.812,117.704C113.346,117.947 113.238,118.023 113.102,118.203C112.635,118.819 112.303,119.403 111.934,120.256C111.653,120.906 111.619,121.046 111.614,121.575C111.61,122.012 111.613,122.032 111.738,122.21C111.891,122.427 112.117,122.564 112.429,122.629C113.208,122.792 115.502,121.916 117.367,120.743C118.429,120.075 118.876,119.742 119.441,119.197C120.172,118.492 120.249,118.456 120.473,118.712C120.755,119.032 120.712,119.198 120.225,119.663C119.897,119.977 119.83,120.067 119.699,120.367C119.505,120.81 119.293,121.677 119.293,122.024C119.293,122.462 119.467,122.669 119.835,122.669C120.437,122.669 121.855,121.812 122.743,120.912C123.307,120.341 123.461,120.122 123.592,119.705C123.878,118.798 124.129,118.49 124.486,118.607C124.823,118.718 124.849,119.033 124.568,119.597C124.211,120.315 123.999,121.547 124.187,121.816C124.341,122.036 124.584,122.013 125.206,121.718C125.686,121.491 126.264,121.093 126.952,120.515L127.477,120.073L127.555,120.169C127.677,120.321 127.658,120.622 127.512,120.851C127.367,121.077 126.689,121.738 126.334,121.999C125.835,122.367 125.021,122.726 124.568,122.78C123.891,122.859 123.329,122.353 123.281,121.62L123.261,121.311L122.981,121.579C122.29,122.241 121.251,122.891 120.461,123.156C119.743,123.397 119.133,123.226 118.849,122.705C118.656,122.35 118.653,121.957 118.838,121.242C118.917,120.935 118.961,120.695 118.936,120.709C118.911,120.723 118.834,120.776 118.764,120.827C118.431,121.071 117.147,121.863 116.732,122.08C115.685,122.629 114.195,123.204 113.4,123.365C112.974,123.451 112.388,123.45 112.093,123.363C111.402,123.158 110.934,122.656 110.823,122.002C110.775,121.723 110.807,121.158 110.891,120.781C110.955,120.497 111.264,119.761 111.612,119.067L111.836,118.619L110.339,119.189L109.985,119.691C109.11,120.93 108.149,122.162 106.572,124.066C105.644,125.187 105.043,125.931 104.025,127.222C102.898,128.651 102.692,128.818 102.325,128.595L102.325,128.595ZM68.302,125.274C68.702,125.165 69.233,124.935 69.573,124.723C69.975,124.473 70.645,123.771 70.913,123.319C71.507,122.32 71.75,121.806 72.035,120.946C72.192,120.475 72.311,120.081 72.301,120.07C72.251,120.02 69.89,119.855 68.556,119.809L67.794,119.782L66.827,120.233C65.154,121.013 63.658,121.625 62.429,122.032C62.132,122.13 61.889,122.226 61.889,122.244C61.889,122.306 62.891,123.246 63.357,123.62C64.507,124.545 65.256,124.942 66.44,125.257C66.871,125.371 66.947,125.379 67.477,125.362C67.814,125.351 68.152,125.315 68.302,125.274L68.302,125.274ZM105.265,121.73C105.811,121.551 105.874,121.503 106.072,121.118C106.483,120.321 106.707,119.551 106.664,119.085C106.608,118.486 106.469,118.283 106.124,118.294C105.844,118.303 105.592,118.456 105.202,118.854C104.635,119.434 104.126,120.323 104.01,120.936C103.966,121.169 104.011,121.491 104.116,121.694C104.242,121.938 104.596,121.949 105.265,121.73L105.265,121.73ZM62.195,121.331C63.475,120.869 65.879,119.87 66.014,119.743C66.038,119.721 65.98,119.706 65.871,119.706C65.77,119.706 64.345,119.667 62.704,119.619C61.063,119.571 59.711,119.541 59.7,119.552C59.644,119.608 61.245,121.607 61.348,121.609C61.388,121.61 61.769,121.485 62.195,121.331L62.195,121.331ZM72.837,118.153C72.961,117.682 73.12,117.121 73.189,116.906C73.259,116.69 73.311,116.509 73.305,116.503C73.3,116.497 73.077,116.645 72.81,116.831C72.21,117.251 71.081,117.969 70.282,118.44L69.679,118.796L70.049,118.828C71.372,118.946 72.304,119.018 72.446,119.013L72.611,119.007L72.837,118.153ZM57.359,118.36C57.359,118.316 56.355,117.332 56.026,117.053C55.085,116.257 53.934,115.555 53.285,115.382C52.761,115.242 52.654,115.688 53.023,116.473C53.151,116.745 53.25,116.876 53.565,117.187C54.002,117.618 54.238,117.76 54.904,117.986C55.568,118.212 57.359,118.484 57.359,118.36ZM115.512,115.867C116.197,115.418 116.4,115.208 116.243,115.111C116.165,115.063 115.665,115.448 115.06,116.024L114.742,116.326L114.954,116.21C115.07,116.146 115.321,115.992 115.512,115.867ZM76.178,113.01C77.962,111.194 79.516,109 80.838,106.434C81.441,105.264 82.145,103.583 82.397,102.715C82.503,102.348 82.544,101.828 82.471,101.782C82.396,101.736 81.961,102.04 81.659,102.349C80.89,103.136 79.501,105.117 78.528,106.816C78.075,107.606 76.982,109.765 76.664,110.498C76.439,111.016 75.351,113.719 75.351,113.76C75.351,113.828 75.569,113.63 76.178,113.01Z" style="fill-rule:nonzero;"/>
        </g>
    </g>
</svg>
