<?xml version="1.0" encoding="UTF-8" standalone="no"?>
<!DOCTYPE svg PUBLIC "-//W3C//DTD SVG 1.1//EN" "http://www.w3.org/Graphics/SVG/1.1/DTD/svg11.dtd">
<svg width="100%" height="100%" viewBox="0 0 1117 1337" version="1.1" xmlns="http://www.w3.org/2000/svg" xmlns:xlink="http://www.w3.org/1999/xlink" xml:space="preserve" xmlns:serif="http://www.serif.com/" style="fill-rule:evenodd;clip-rule:evenodd;stroke-linejoin:round;stroke-miterlimit:2;">
    <g id="Layer" transform="matrix(4.166667,0,0,4.166667,-4111.9,-1145.766667)">
        <path d="M1161.56,275C1156.07,274.884 1150.35,275.399 1144.47,276.469C1124.6,282.257 1118.04,287.557 1110.28,296.281C1066.39,345.663 1095.37,378.945 1121.06,426.781C1132.42,447.931 1142.17,471.803 1144.81,496.062L1038.22,564.5C1027.02,557.06 1017.47,547.208 1011.28,535.656C999.573,513.8 1000.6,491.829 1005.67,475.192C1007.04,470.694 1015.39,472.91 1020.28,471.781C1048.85,465.189 1025.24,425.056 1001.38,460.062C994.786,469.727 991.528,477.877 988.781,489.781C985.84,502.529 986.144,517.829 990.562,530.281C1008.45,580.703 1071.85,612.718 1121.06,586.062C1153.64,568.419 1162.98,536.803 1160.56,503.75L1187.34,486.619C1189.54,485.21 1189.01,481.853 1186.48,481.195L1174.51,478.086C1173.7,477.876 1172.84,478.014 1172.14,478.467L1158.5,487.25C1154.08,463.044 1144.38,439.159 1133.66,420.469C1119.23,395.333 1098.32,372.752 1101.28,342.156C1104.92,304.591 1140.72,278.176 1176.84,289.766C1182.9,291.71 1191.44,300.225 1195.12,304.041C1201.55,310.715 1208.47,324.165 1213.56,319.344C1218.04,315.106 1211.7,303.526 1203.88,294.469C1192.51,281.304 1178.03,275.347 1161.56,275ZM1214.38,325.406C1213.06,325.25 1213.03,325.315 1212.25,325.5C1211.35,325.712 1210.38,326.169 1209.28,326.875C1200.61,332.447 1188.69,380.116 1196.66,388.969C1209.36,403.081 1235.88,376.021 1238.06,382.656C1244.5,402.204 1229.24,475.026 1229.84,497.187C1229.99,502.508 1232.24,504.118 1234.53,503.219C1237.27,502.142 1238.25,498.271 1239.84,490.812C1241.49,483.103 1243.07,473.466 1243.6,470.677C1246.07,457.49 1247.52,444.506 1249.78,431.281C1251.42,421.704 1253.4,412.145 1254.28,402.469C1255.3,391.283 1256.9,368.361 1239.88,366.469C1228.95,365.255 1211.64,380.793 1210.16,375.469C1208.84,370.765 1210.87,365.414 1212,360.663C1213.87,352.805 1217.53,345.568 1219.16,337.656C1219.91,334.012 1219.75,326.046 1214.38,325.406ZM1145.69,513.281C1145.73,528.924 1143.23,543.143 1132.78,556.375C1112.81,581.675 1080.61,583.99 1053.34,572.594L1145.69,513.281Z" style="fill:white;fill-rule:nonzero;"/>
    </g>
</svg>
